<svg xmlns="http://www.w3.org/2000/svg" fill="none" width="16" height="16"><path d="M14.268 2.066q-.732-.733-1.768-.733H3.667q-1.105 0-1.886.781-.78.781-.78 1.886v5.667q0 1.104.78 1.885.781.781 1.886.781h8.666q1.105 0 1.886-.78Q15 10.77 15 9.666V3.833q0-1.035-.732-1.767Zm-3.268.6h1.5q.483 0 .825.342.342.342.342.825v5.834q0 .552-.39.942-.391.391-.944.391H3.667q-.553 0-.943-.39-.39-.391-.39-.943V4q0-.552.39-.943.39-.39.943-.39H11ZM7.833 15H5v-.002q-.065 0-.13-.013-.064-.012-.124-.037-.06-.025-.115-.062-.055-.036-.101-.082-.046-.047-.083-.101-.036-.055-.061-.115-.025-.06-.038-.125-.013-.064-.013-.13 0-.065.013-.13.013-.064.038-.124t.061-.115q.037-.054.083-.1.046-.047.1-.083.055-.037.116-.062.06-.025.124-.038.065-.012.13-.012v-.002h5.667v.002q.065 0 .13.012.064.013.124.038t.115.062q.055.036.1.082.047.047.084.101.036.054.061.115.025.06.038.125.013.064.013.13 0 .065-.013.13-.013.063-.038.124-.025.06-.061.115-.037.054-.083.1-.046.047-.1.083-.055.037-.116.062-.06.025-.125.037-.064.013-.13.013V15H7.834Z" fill-rule="evenodd" fill="#4D07FF"/><path d="M4.583 5.5v2.667q0 .065.013.13.013.064.038.125.025.06.062.115.036.055.083.101.046.047.1.083.055.036.116.062.06.025.125.038.064.012.13.012t.13-.012q.064-.013.125-.038.06-.026.115-.062.055-.036.101-.083.047-.046.083-.101.037-.055.062-.115.025-.06.038-.125.013-.065.013-.13V5.5q0-.066-.013-.13t-.038-.125q-.025-.06-.062-.115-.036-.055-.083-.101-.046-.047-.1-.083-.055-.037-.116-.062-.06-.025-.125-.038-.064-.013-.13-.013t-.13.013q-.064.013-.125.038-.06.025-.115.062-.055.036-.101.083-.047.046-.083.1-.037.055-.062.116-.025.06-.038.125-.013.064-.013.13ZM9.7 8.059l.579.58q.093.093.216.144.122.05.255.05t.255-.05q.123-.051.216-.145.094-.094.145-.216.05-.123.05-.255 0-.133-.05-.255-.05-.123-.145-.217l-.579-.579q-.21-.21-.266-.277l-.005-.006.005-.006q.056-.066.266-.277l.58-.579q.093-.093.144-.216.05-.122.05-.255t-.05-.255q-.05-.123-.145-.216-.046-.047-.1-.083-.055-.037-.116-.062-.06-.025-.125-.038-.064-.013-.13-.013t-.13.013q-.064.013-.125.038-.06.025-.115.062-.055.036-.101.083l-.58.579q-.25.25-.341.359-.196.23-.27.463-.127.403 0 .807.074.232.27.463.092.11.342.359Z" fill-rule="evenodd" fill="#4D07FF"/></svg>